 999
SignTorch Vector Graphics - wren_silhouette_.dxf
 999
copyright Gary DeWitt, signtorch.com
  0
SECTION
  2
HEADER
  9
$ACADVER
  1
AC1009
  9
$DWGCODEPAGE
  3
ansi_1252
  9
$INSBASE
 10
0.0
 20
0.0
 30
0.0
  9
$EXTMIN
 10
8.001521672925117
 20
10.11006420838797
 30
0.0
  9
$EXTMAX
 10
15.99680192633481
 20
13.89013466245322
 30
0.0
  9
$LIMMIN
 10
0.0
 20
0.0
  9
$LIMMAX
 10
12.0
 20
9.0
  9
$ORTHOMODE
 70
     0
  9
$REGENMODE
 70
     1
  9
$FILLMODE
 70
     1
  9
$QTEXTMODE
 70
     0
  9
$MIRRTEXT
 70
     1
  9
$DRAGMODE
 70
     2
  9
$LTSCALE
 40
1.0
  9
$OSMODE
 70
    37
  9
$ATTMODE
 70
     1
  9
$TEXTSIZE
 40
0.2
  9
$TRACEWID
 40
0.05
  9
$TEXTSTYLE
  7
STANDARD
  9
$CLAYER
  8
0
  9
$CELTYPE
  6
BYLAYER
  9
$CECOLOR
 62
   256
  9
$DIMSCALE
 40
1.0
  9
$DIMASZ
 40
0.18
  9
$DIMEXO
 40
0.0625
  9
$DIMDLI
 40
0.38
  9
$DIMRND
 40
0.0
  9
$DIMDLE
 40
0.0
  9
$DIMEXE
 40
0.18
  9
$DIMTP
 40
0.0
  9
$DIMTM
 40
0.0
  9
$DIMTXT
 40
0.18
  9
$DIMCEN
 40
0.09
  9
$DIMTSZ
 40
0.0
  9
$DIMTOL
 70
     0
  9
$DIMLIM
 70
     0
  9
$DIMTIH
 70
     1
  9
$DIMTOH
 70
     1
  9
$DIMSE1
 70
     0
  9
$DIMSE2
 70
     0
  9
$DIMTAD
 70
     0
  9
$DIMZIN
 70
     0
  9
$DIMBLK
  1

  9
$DIMASO
 70
     1
  9
$DIMSHO
 70
     1
  9
$DIMPOST
  1

  9
$DIMAPOST
  1

  9
$DIMALT
 70
     0
  9
$DIMALTD
 70
     2
  9
$DIMALTF
 40
25.4
  9
$DIMLFAC
 40
1.0
  9
$DIMTOFL
 70
     0
  9
$DIMTVP
 40
0.0
  9
$DIMTIX
 70
     0
  9
$DIMSOXD
 70
     0
  9
$DIMSAH
 70
     0
  9
$DIMBLK1
  1

  9
$DIMBLK2
  1

  9
$DIMSTYLE
  2
STANDARD
  9
$DIMCLRD
 70
     0
  9
$DIMCLRE
 70
     0
  9
$DIMCLRT
 70
     0
  9
$DIMTFAC
 40
1.0
  9
$DIMGAP
 40
0.09
  9
$LUNITS
 70
     2
  9
$LUPREC
 70
     4
  9
$SKETCHINC
 40
0.1
  9
$FILLETRAD
 40
0.5
  9
$AUNITS
 70
     0
  9
$AUPREC
 70
     0
  9
$MENU
  1
.
  9
$ELEVATION
 40
0.0
  9
$PELEVATION
 40
0.0
  9
$THICKNESS
 40
0.0
  9
$LIMCHECK
 70
     0
  9
$CHAMFERA
 40
0.5
  9
$CHAMFERB
 40
0.5
  9
$SKPOLY
 70
     0
  9
$TDCREATE
 40
2454910.5
  9
$TDUPDATE
 40
2456477.505110428
  9
$TDINDWG
 40
0.0000000116
  9
$TDUSRTIMER
 40
0.0000000116
  9
$USRTIMER
 70
     1
  9
$ANGBASE
 50
0.0
  9
$ANGDIR
 70
     0
  9
$PDMODE
 70
     0
  9
$PDSIZE
 40
0.0
  9
$PLINEWID
 40
0.0
  9
$COORDS
 70
     1
  9
$SPLFRAME
 70
     0
  9
$SPLINETYPE
 70
     6
  9
$SPLINESEGS
 70
     8
  9
$ATTDIA
 70
     0
  9
$ATTREQ
 70
     1
  9
$HANDLING
 70
     1
  9
$HANDSEED
  5
142
  9
$SURFTAB1
 70
     6
  9
$SURFTAB2
 70
     6
  9
$SURFTYPE
 70
     6
  9
$SURFU
 70
     6
  9
$SURFV
 70
     6
  9
$UCSNAME
  2

  9
$UCSORG
 10
0.0
 20
0.0
 30
0.0
  9
$UCSXDIR
 10
1.0
 20
0.0
 30
0.0
  9
$UCSYDIR
 10
0.0
 20
1.0
 30
0.0
  9
$PUCSNAME
  2

  9
$PUCSORG
 10
0.0
 20
0.0
 30
0.0
  9
$PUCSXDIR
 10
1.0
 20
0.0
 30
0.0
  9
$PUCSYDIR
 10
0.0
 20
1.0
 30
0.0
  9
$USERI1
 70
     0
  9
$USERI2
 70
     0
  9
$USERI3
 70
     0
  9
$USERI4
 70
     0
  9
$USERI5
 70
     0
  9
$USERR1
 40
0.0
  9
$USERR2
 40
0.0
  9
$USERR3
 40
0.0
  9
$USERR4
 40
0.0
  9
$USERR5
 40
0.0
  9
$WORLDVIEW
 70
     1
  9
$SHADEDGE
 70
     3
  9
$SHADEDIF
 70
    70
  9
$TILEMODE
 70
     1
  9
$MAXACTVP
 70
    64
  9
$PLIMCHECK
 70
     0
  9
$PEXTMIN
 10
1.000000000000000E+20
 20
1.000000000000000E+20
 30
1.000000000000000E+20
  9
$PEXTMAX
 10
-1.000000000000000E+20
 20
-1.000000000000000E+20
 30
-1.000000000000000E+20
  9
$PLIMMIN
 10
0.0
 20
0.0
  9
$PLIMMAX
 10
12.0
 20
9.0
  9
$UNITMODE
 70
     0
  9
$VISRETAIN
 70
     1
  9
$PLINEGEN
 70
     0
  9
$PSLTSCALE
 70
     1
  0
ENDSEC
  0
SECTION
  2
TABLES
  0
TABLE
  2
VPORT
 70
     1
  0
VPORT
  2
*ACTIVE
 70
     0
 10
0.0
 20
0.0
 11
1.0
 21
1.0
 12
10.42990654205607
 22
4.5
 13
0.0
 23
0.0
 14
0.5
 24
0.5
 15
0.5
 25
0.5
 16
0.0
 26
0.0
 36
1.0
 17
0.0
 27
0.0
 37
0.0
 40
9.0
 41
1.972972972850329
 42
50.0
 43
0.0
 44
0.0
 50
0.0
 51
0.0
 71
     0
 72
   100
 73
     1
 74
     3
 75
     0
 76
     0
 77
     0
 78
     0
  0
ENDTAB
  0
TABLE
  2
LTYPE
 70
     2
  0
LTYPE
  2
CONTINUOUS
 70
     0
  3
Solid line
 72
    65
 73
     0
 40
0.0
  0
LTYPE
  2
CONTINUOUS2
 70
     0
  3
Solid Line
 72
    65
 73
     0
 40
0.0
  0
ENDTAB
  0
TABLE
  2
LAYER
 70
     2
  0
LAYER
  2
0
 70
     0
 62
     7
  6
CONTINUOUS
  0
LAYER
  2
SignTorch_WREN_SILHOUETTE_
 70
     0
 62
    18
  6
CONTINUOUS
  0
ENDTAB
  0
TABLE
  2
STYLE
 70
     1
  0
STYLE
  2
STANDARD
 70
     0
 40
0.0
 41
1.0
 50
0.0
 71
     0
 42
0.2
  3
txt
  4

  0
ENDTAB
  0
TABLE
  2
VIEW
 70
     0
  0
ENDTAB
  0
TABLE
  2
UCS
 70
     0
  0
ENDTAB
  0
TABLE
  2
APPID
 70
     1
  0
APPID
  2
ACAD
 70
     0
  0
ENDTAB
  0
TABLE
  2
DIMSTYLE
 70
     1
  0
DIMSTYLE
  2
STANDARD
 70
     0
  3

  4

  5

  6

  7

 40
1.0
 41
0.18
 42
0.0625
 43
0.38
 44
0.18
 45
0.0
 46
0.0
 47
0.0
 48
0.0
140
0.18
141
0.09
142
0.0
143
25.4
144
1.0
145
0.0
146
1.0
147
0.09
 71
     0
 72
     0
 73
     1
 74
     1
 75
     0
 76
     0
 77
     0
 78
     0
170
     0
171
     2
172
     0
173
     0
174
     0
175
     0
176
     0
177
     0
178
     0
  0
ENDTAB
  0
ENDSEC
  0
SECTION
  2
BLOCKS
  0
BLOCK
  8
0
  2
$MODEL_SPACE
 70
     0
 10
0.0
 20
0.0
 30
0.0
  3
$MODEL_SPACE
  1

  0
ENDBLK
  5
21
  8
0
  0
BLOCK
 67
     1
  8
0
  2
$PAPER_SPACE
 70
     0
 10
0.0
 20
0.0
 30
0.0
  3
$PAPER_SPACE
  1

  0
ENDBLK
  5
1D
 67
     1
  8
0
  0
ENDSEC
  0
SECTION
  2
ENTITIES
  0
POLYLINE
  5
41
  8
SignTorch_WREN_SILHOUETTE_
 66
     1
 10
0.0
 20
0.0
 30
0.0
 70
     1
  0
VERTEX
  5
47
  8
SignTorch_WREN_SILHOUETTE_
 10
12.50214842447917
 20
10.31716548014323
 30
0.0
 42
-0.047804401195443
  0
VERTEX
  5
48
  8
SignTorch_WREN_SILHOUETTE_
 10
12.57134995033689
 20
10.30144673989569
 30
0.0
 42
-0.0425508425218719
  0
VERTEX
  5
49
  8
SignTorch_WREN_SILHOUETTE_
 10
12.64462474283854
 20
10.27012568522135
 30
0.0
 42
-0.0017052837819542
  0
VERTEX
  5
4A
  8
SignTorch_WREN_SILHOUETTE_
 10
12.70023784583054
 20
10.2402905085664
 30
0.0
 42
0.1204538371629811
  0
VERTEX
  5
4B
  8
SignTorch_WREN_SILHOUETTE_
 10
12.75099974283854
 20
10.22700068522135
 30
0.0
 42
0.4399804089965487
  0
VERTEX
  5
4C
  8
SignTorch_WREN_SILHOUETTE_
 10
12.77913549978812
 20
10.25671470925543
 30
0.0
 42
0.1312626500389674
  0
VERTEX
  5
4D
  8
SignTorch_WREN_SILHOUETTE_
 10
12.76244310221354
 20
10.30514912272135
 30
0.0
 42
0.0490389543646115
  0
VERTEX
  5
4E
  8
SignTorch_WREN_SILHOUETTE_
 10
12.7335161017056
 20
10.34013202178184
 30
0.0
 42
0.036119628642257
  0
VERTEX
  5
4F
  8
SignTorch_WREN_SILHOUETTE_
 10
12.68681614908854
 20
10.38024482584635
 30
0.0
 42
0.0894864309903625
  0
VERTEX
  5
50
  8
SignTorch_WREN_SILHOUETTE_
 10
12.58388244520878
 20
10.43110998633827
 30
0.0
 42
0.0881677638874899
  0
VERTEX
  5
51
  8
SignTorch_WREN_SILHOUETTE_
 10
12.38789036783854
 20
10.45168232584635
 30
0.0
 42
0.0234394159088896
  0
VERTEX
  5
52
  8
SignTorch_WREN_SILHOUETTE_
 10
12.2764342546898
 20
10.43845004399115
 30
0.0
 42
-0.1049487226131268
  0
VERTEX
  5
53
  8
SignTorch_WREN_SILHOUETTE_
 10
12.24832786783854
 20
10.43969013834635
 30
0.0
 42
-0.1917470286313289
  0
VERTEX
  5
54
  8
SignTorch_WREN_SILHOUETTE_
 10
12.23501355511015
 20
10.44944109551247
 30
0.0
 42
-0.0318460297044846
  0
VERTEX
  5
55
  8
SignTorch_WREN_SILHOUETTE_
 10
12.22159349283854
 20
10.47423506022135
 30
0.0
 42
0.0556320365739916
  0
VERTEX
  5
56
  8
SignTorch_WREN_SILHOUETTE_
 10
12.21384940504577
 20
10.48704961278014
 30
0.0
 42
0.2363338298828104
  0
VERTEX
  5
57
  8
SignTorch_WREN_SILHOUETTE_
 10
12.19644066080729
 20
10.49549995279948
 30
0.0
 42
0.1043887193821149
  0
VERTEX
  5
58
  8
SignTorch_WREN_SILHOUETTE_
 10
12.16157174252597
 20
10.48769272194859
 30
0.0
 42
-0.0334107529580131
  0
VERTEX
  5
59
  8
SignTorch_WREN_SILHOUETTE_
 10
12.12814891276041
 20
10.47505512858073
 30
0.0
 42
-0.1327233838256746
  0
VERTEX
  5
5A
  8
SignTorch_WREN_SILHOUETTE_
 10
12.06521506521574
 20
10.47311642379846
 30
0.0
 42
-0.0318618853081445
  0
VERTEX
  5
5B
  8
SignTorch_WREN_SILHOUETTE_
 10
12.01898216471354
 20
10.48725654459635
 30
0.0
 42
0.007820146725697
  0
VERTEX
  5
5C
  8
SignTorch_WREN_SILHOUETTE_
 10
11.96094771348806
 20
10.50810422039815
 30
0.0
 42
0.0144205022550806
  0
VERTEX
  5
5D
  8
SignTorch_WREN_SILHOUETTE_
 10
11.92899974283854
 20
10.51800068522135
 30
0.0
 42
-0.0251291544854127
  0
VERTEX
  5
5E
  8
SignTorch_WREN_SILHOUETTE_
 10
11.86962262146089
 20
10.53779651203788
 30
0.0
 42
-0.0831729149128906
  0
VERTEX
  5
5F
  8
SignTorch_WREN_SILHOUETTE_
 10
11.82859349283854
 20
10.56227998209635
 30
0.0
 42
-0.0743661096463661
  0
VERTEX
  5
60
  8
SignTorch_WREN_SILHOUETTE_
 10
11.8146628927532
 20
10.57821580456212
 30
0.0
 42
-0.4393035517584477
  0
VERTEX
  5
61
  8
SignTorch_WREN_SILHOUETTE_
 10
11.82099974283854
 20
10.60223506022135
 30
0.0
 42
-0.1057075609942154
  0
VERTEX
  5
62
  8
SignTorch_WREN_SILHOUETTE_
 10
11.83703630922613
 20
10.6067488602842
 30
0.0
 42
-0.040597366185068
  0
VERTEX
  5
63
  8
SignTorch_WREN_SILHOUETTE_
 10
11.87999974283854
 20
10.60600068522135
 30
0.0
 42
-0.005547968615539
  0
VERTEX
  5
64
  8
SignTorch_WREN_SILHOUETTE_
 10
11.9945609794665
 20
10.59338747781856
 30
0.0
 42
0.0234213792815579
  0
VERTEX
  5
65
  8
SignTorch_WREN_SILHOUETTE_
 10
12.10949974283854
 20
10.58487568522135
 30
0.0
 42
0.0156989301009797
  0
VERTEX
  5
66
  8
SignTorch_WREN_SILHOUETTE_
 10
12.20138030351229
 20
10.58527163666961
 30
0.0
 42
0.0118908402157988
  0
VERTEX
  5
67
  8
SignTorch_WREN_SILHOUETTE_
 10
12.39754051432292
 20
10.59695405436198
 30
0.0
 42
0.0340075058730226
  0
VERTEX
  5
68
  8
SignTorch_WREN_SILHOUETTE_
 10
12.64705308054438
 20
10.63498443983721
 30
0.0
 42
0.0348695529115693
  0
VERTEX
  5
69
  8
SignTorch_WREN_SILHOUETTE_
 10
12.88301658854167
 20
10.70513032389323
 30
0.0
 42
0.0186359049771556
  0
VERTEX
  5
6A
  8
SignTorch_WREN_SILHOUETTE_
 10
13.06869013084994
 20
10.78274316262368
 30
0.0
 42
0.0170157310430476
  0
VERTEX
  5
6B
  8
SignTorch_WREN_SILHOUETTE_
 10
13.39824974283854
 20
10.94900068522135
 30
0.0
 42
0.0132206032138982
  0
VERTEX
  5
6C
  8
SignTorch_WREN_SILHOUETTE_
 10
13.54263800624875
 20
11.03315397915117
 30
0.0
 42
0.0540648887601742
  0
VERTEX
  5
6D
  8
SignTorch_WREN_SILHOUETTE_
 10
13.71545286783854
 20
11.16787568522135
 30
0.0
 42
0.0251912023241567
  0
VERTEX
  5
6E
  8
SignTorch_WREN_SILHOUETTE_
 10
13.96909555424452
 20
11.44001164061267
 30
0.0
 42
0.0527804953242038
  0
VERTEX
  5
6F
  8
SignTorch_WREN_SILHOUETTE_
 10
14.17724876627604
 20
11.74795161295573
 30
0.0
 42
0.0304898845164005
  0
VERTEX
  5
70
  8
SignTorch_WREN_SILHOUETTE_
 10
14.24860797220287
 20
11.90437962657903
 30
0.0
 42
0.0059604686114618
  0
VERTEX
  5
71
  8
SignTorch_WREN_SILHOUETTE_
 10
14.29759935221354
 20
12.03649677897135
 30
0.0
 42
-0.006922700655666
  0
VERTEX
  5
72
  8
SignTorch_WREN_SILHOUETTE_
 10
14.35245588203858
 20
12.18356196101406
 30
0.0
 42
-0.0533708668366103
  0
VERTEX
  5
73
  8
SignTorch_WREN_SILHOUETTE_
 10
14.43166990885416
 20
12.3366476578776
 30
0.0
 42
-0.020021833147278
  0
VERTEX
  5
74
  8
SignTorch_WREN_SILHOUETTE_
 10
14.47562061875154
 20
12.39766908540269
 30
0.0
 42
-0.0094656416067155
  0
VERTEX
  5
75
  8
SignTorch_WREN_SILHOUETTE_
 10
14.57599974283854
 20
12.52100068522135
 30
0.0
 42
0.0180083693418647
  0
VERTEX
  5
76
  8
SignTorch_WREN_SILHOUETTE_
 10
14.71893485724811
 20
12.70287855105826
 30
0.0
 42
0.0245006832313974
  0
VERTEX
  5
77
  8
SignTorch_WREN_SILHOUETTE_
 10
14.81229075846354
 20
12.84503779459635
 30
0.0
 42
0.0002481270347359
  0
VERTEX
  5
78
  8
SignTorch_WREN_SILHOUETTE_
 10
14.86375472473485
 20
12.93255485607696
 30
0.0
 42
-0.063396569823411
  0
VERTEX
  5
79
  8
SignTorch_WREN_SILHOUETTE_
 10
14.91651225504557
 20
13.00085450602214
 30
0.0
 42
-0.0905234880096994
  0
VERTEX
  5
7A
  8
SignTorch_WREN_SILHOUETTE_
 10
14.99654542016633
 20
13.05630507431944
 30
0.0
 42
-0.0524557711110688
  0
VERTEX
  5
7B
  8
SignTorch_WREN_SILHOUETTE_
 10
15.07779271158854
 20
13.08327802897135
 30
0.0
 42
-0.0125894272689606
  0
VERTEX
  5
7C
  8
SignTorch_WREN_SILHOUETTE_
 10
15.13295983772898
 20
13.0939189070007
 30
0.0
 42
0.0231408015055414
  0
VERTEX
  5
7D
  8
SignTorch_WREN_SILHOUETTE_
 10
15.35267161783854
 20
13.14112568522135
 30
0.0
 42
0.0131584500734223
  0
VERTEX
  5
7E
  8
SignTorch_WREN_SILHOUETTE_
 10
15.62740553814014
 20
13.22138604628741
 30
0.0
 42
0.0638995273583753
  0
VERTEX
  5
7F
  8
SignTorch_WREN_SILHOUETTE_
 10
15.66499974283854
 20
13.23900068522135
 30
0.0
 42
0.1048963008250802
  0
VERTEX
  5
80
  8
SignTorch_WREN_SILHOUETTE_
 10
15.6804100255993
 20
13.25408845088717
 30
0.0
 42
0.3687020018883235
  0
VERTEX
  5
81
  8
SignTorch_WREN_SILHOUETTE_
 10
15.67687816080729
 20
13.2834953141276
 30
0.0
 42
0.1161076113991814
  0
VERTEX
  5
82
  8
SignTorch_WREN_SILHOUETTE_
 10
15.65808760688589
 20
13.29409521001136
 30
0.0
 42
0.0643917299498747
  0
VERTEX
  5
83
  8
SignTorch_WREN_SILHOUETTE_
 10
15.61999974283854
 20
13.30000068522135
 30
0.0
 42
0.0236466402972722
  0
VERTEX
  5
84
  8
SignTorch_WREN_SILHOUETTE_
 10
15.43926256912299
 20
13.29601180354897
 30
0.0
 42
-0.0140680860728877
  0
VERTEX
  5
85
  8
SignTorch_WREN_SILHOUETTE_
 10
15.34199974283854
 20
13.29200068522135
 30
0.0
 42
-0.0810072914458909
  0
VERTEX
  5
86
  8
SignTorch_WREN_SILHOUETTE_
 10
15.31443537488565
 20
13.29612658423632
 30
0.0
 42
-0.478324163247788
  0
VERTEX
  5
87
  8
SignTorch_WREN_SILHOUETTE_
 10
15.31236107096354
 20
13.30150263834635
 30
0.0
 42
-0.1578366753235664
  0
VERTEX
  5
88
  8
SignTorch_WREN_SILHOUETTE_
 10
15.3202228129014
 20
13.30858985487603
 30
0.0
 42
-0.0609396771994592
  0
VERTEX
  5
89
  8
SignTorch_WREN_SILHOUETTE_
 10
15.35828099283854
 20
13.32031318522135
 30
0.0
 42
-0.0227800550979233
  0
VERTEX
  5
8A
  8
SignTorch_WREN_SILHOUETTE_
 10
15.39422800353156
 20
13.32506885359718
 30
0.0
 42
0.039194359381113
  0
VERTEX
  5
8B
  8
SignTorch_WREN_SILHOUETTE_
 10
15.42999974283854
 20
13.33100068522135
 30
0.0
 42
-0.0101309542076716
  0
VERTEX
  5
8C
  8
SignTorch_WREN_SILHOUETTE_
 10
15.70858249804973
 20
13.39400446654765
 30
0.0
 42
-0.0172507384365743
  0
VERTEX
  5
8D
  8
SignTorch_WREN_SILHOUETTE_
 10
15.87399974283854
 20
13.42200068522135
 30
0.0
 42
0.0165271674065115
  0
VERTEX
  5
8E
  8
SignTorch_WREN_SILHOUETTE_
 10
15.94583193228259
 20
13.43405112861964
 30
0.0
 42
0.1138330887015858
  0
VERTEX
  5
8F
  8
SignTorch_WREN_SILHOUETTE_
 10
15.98244481119792
 20
13.45066352701823
 30
0.0
 42
0.20377487890626
  0
VERTEX
  5
90
  8
SignTorch_WREN_SILHOUETTE_
 10
15.99661418006962
 20
13.47563571568347
 30
0.0
 42
0.2234103807786463
  0
VERTEX
  5
91
  8
SignTorch_WREN_SILHOUETTE_
 10
15.98817112955729
 20
13.5006486344401
 30
0.0
 42
0.1217424190710878
  0
VERTEX
  5
92
  8
SignTorch_WREN_SILHOUETTE_
 10
15.96383313643819
 20
13.51602160430682
 30
0.0
 42
0.045013849019365
  0
VERTEX
  5
93
  8
SignTorch_WREN_SILHOUETTE_
 10
15.88900364908854
 20
13.53362959147135
 30
0.0
 42
0.0267175464326522
  0
VERTEX
  5
94
  8
SignTorch_WREN_SILHOUETTE_
 10
15.8075071467597
 20
13.54079641418602
 30
0.0
 42
0.0086259152751415
  0
VERTEX
  5
95
  8
SignTorch_WREN_SILHOUETTE_
 10
15.43612474283854
 20
13.54712568522135
 30
0.0
 42
0.0322337633964887
  0
VERTEX
  5
96
  8
SignTorch_WREN_SILHOUETTE_
 10
15.1589955105804
 20
13.52918266262382
 30
0.0
 42
-0.0579118246435782
  0
VERTEX
  5
97
  8
SignTorch_WREN_SILHOUETTE_
 10
15.08955613932292
 20
13.52825166178385
 30
0.0
 42
-0.1386604593246897
  0
VERTEX
  5
98
  8
SignTorch_WREN_SILHOUETTE_
 10
15.0121132472592
 20
13.55899058772264
 30
0.0
 42
0.0275803772013592
  0
VERTEX
  5
99
  8
SignTorch_WREN_SILHOUETTE_
 10
14.94326463541667
 20
13.60591767740885
 30
0.0
 42
0.0168584803172225
  0
VERTEX
  5
9A
  8
SignTorch_WREN_SILHOUETTE_
 10
14.86698951781453
 20
13.64852358220836
 30
0.0
 42
0.0166106268433308
  0
VERTEX
  5
9B
  8
SignTorch_WREN_SILHOUETTE_
 10
14.73073695597331
 20
13.71308128214518
 30
0.0
 42
0.0428909970431085
  0
VERTEX
  5
9C
  8
SignTorch_WREN_SILHOUETTE_
 10
14.47249752905377
 20
13.79967155918287
 30
0.0
 42
0.097936398559851
  0
VERTEX
  5
9D
  8
SignTorch_WREN_SILHOUETTE_
 10
14.01885911783854
 20
13.81898506022135
 30
0.0
 42
0.0473514372282787
  0
VERTEX
  5
9E
  8
SignTorch_WREN_SILHOUETTE_
 10
13.77704140136843
 20
13.75792527776029
 30
0.0
 42
0.0396625975038017
  0
VERTEX
  5
9F
  8
SignTorch_WREN_SILHOUETTE_
 10
13.50549632486979
 20
13.63625361490885
 30
0.0
 42
0.0224312619005558
  0
VERTEX
  5
A0
  8
SignTorch_WREN_SILHOUETTE_
 10
13.27165416803715
 20
13.49436352884686
 30
0.0
 42
-0.0053908668631834
  0
VERTEX
  5
A1
  8
SignTorch_WREN_SILHOUETTE_
 10
13.04278148111979
 20
13.34458955240885
 30
0.0
 42
-0.0149342206937313
  0
VERTEX
  5
A2
  8
SignTorch_WREN_SILHOUETTE_
 10
12.90426903150827
 20
13.26178435292677
 30
0.0
 42
-0.0647096443876967
  0
VERTEX
  5
A3
  8
SignTorch_WREN_SILHOUETTE_
 10
12.71157518229166
 20
13.18488520670573
 30
0.0
 42
-0.0301737295822986
  0
VERTEX
  5
A4
  8
SignTorch_WREN_SILHOUETTE_
 10
12.57674386834193
 20
13.15893492667596
 30
0.0
 42
0.0008582037302197
  0
VERTEX
  5
A5
  8
SignTorch_WREN_SILHOUETTE_
 10
12.40751536783854
 20
13.13654756022135
 30
0.0
 42
0.0225173665241167
  0
VERTEX
  5
A6
  8
SignTorch_WREN_SILHOUETTE_
 10
12.19283157476354
 20
13.09786510853562
 30
0.0
 42
0.0167493717827359
  0
VERTEX
  5
A7
  8
SignTorch_WREN_SILHOUETTE_
 10
11.90924974283854
 20
13.02339912272135
 30
0.0
 42
0.0108297088767856
  0
VERTEX
  5
A8
  8
SignTorch_WREN_SILHOUETTE_
 10
11.78503983682956
 20
12.98334438985036
 30
0.0
 42
0.0173439675629314
  0
VERTEX
  5
A9
  8
SignTorch_WREN_SILHOUETTE_
 10
11.70899974283854
 20
12.95400068522135
 30
0.0
 42
0.010999749328937
  0
VERTEX
  5
AA
  8
SignTorch_WREN_SILHOUETTE_
 10
11.4425821301555
 20
12.83343304449235
 30
0.0
 42
0.0326060968371785
  0
VERTEX
  5
AB
  8
SignTorch_WREN_SILHOUETTE_
 10
11.23620677408854
 20
12.71740888834635
 30
0.0
 42
0.008381185839199
  0
VERTEX
  5
AC
  8
SignTorch_WREN_SILHOUETTE_
 10
11.12822151621636
 20
12.64446181482715
 30
0.0
 42
0.0049844641221696
  0
VERTEX
  5
AD
  8
SignTorch_WREN_SILHOUETTE_
 10
10.94999974283854
 20
12.51700068522135
 30
0.0
 42
0.0144989791926062
  0
VERTEX
  5
AE
  8
SignTorch_WREN_SILHOUETTE_
 10
10.8789569813372
 20
12.46188590672412
 30
0.0
 42
-0.1888646790217527
  0
VERTEX
  5
AF
  8
SignTorch_WREN_SILHOUETTE_
 10
10.81781712565104
 20
12.44193159342448
 30
0.0
 42
-0.0564453142085987
  0
VERTEX
  5
B0
  8
SignTorch_WREN_SILHOUETTE_
 10
10.76412517756799
 20
12.45118305872511
 30
0.0
 42
-0.0133425270978895
  0
VERTEX
  5
B1
  8
SignTorch_WREN_SILHOUETTE_
 10
10.44987474283854
 20
12.55187568522135
 30
0.0
 42
-0.0107652799160576
  0
VERTEX
  5
B2
  8
SignTorch_WREN_SILHOUETTE_
 10
10.25716041981195
 20
12.62403979204115
 30
0.0
 42
-0.0649706935242215
  0
VERTEX
  5
B3
  8
SignTorch_WREN_SILHOUETTE_
 10
10.15332786783854
 20
12.68206318522135
 30
0.0
 42
-0.0067716704640948
  0
VERTEX
  5
B4
  8
SignTorch_WREN_SILHOUETTE_
 10
10.07649901268072
 20
12.74081987284048
 30
0.0
 42
0.0180010104234236
  0
VERTEX
  5
B5
  8
SignTorch_WREN_SILHOUETTE_
 10
9.763999742838541
 20
12.96887568522135
 30
0.0
 42
0.0123375009933479
  0
VERTEX
  5
B6
  8
SignTorch_WREN_SILHOUETTE_
 10
9.556258941084778
 20
13.10196141942916
 30
0.0
 42
-0.0168321481662102
  0
VERTEX
  5
B7
  8
SignTorch_WREN_SILHOUETTE_
 10
9.44504661783854
 20
13.17462568522135
 30
0.0
 42
-0.0070317737953538
  0
VERTEX
  5
B8
  8
SignTorch_WREN_SILHOUETTE_
 10
9.351855361974318
 20
13.24207086444851
 30
0.0
 42
0.0234416210696373
  0
VERTEX
  5
B9
  8
SignTorch_WREN_SILHOUETTE_
 10
9.256501695963541
 20
13.30642256022135
 30
0.0
 42
0.010975402459902
  0
VERTEX
  5
BA
  8
SignTorch_WREN_SILHOUETTE_
 10
9.161254090648953
 20
13.36157133418287
 30
0.0
 42
-0.0089235211484235
  0
VERTEX
  5
BB
  8
SignTorch_WREN_SILHOUETTE_
 10
9.06578099283854
 20
13.41632881022135
 30
0.0
 42
0.0007752050422958
  0
VERTEX
  5
BC
  8
SignTorch_WREN_SILHOUETTE_
 10
8.885117188208808
 20
13.52389626931407
 30
0.0
 42
0.0232397809228965
  0
VERTEX
  5
BD
  8
SignTorch_WREN_SILHOUETTE_
 10
8.714511461588542
 20
13.61467841959635
 30
0.0
 42
0.00745920813686
  0
VERTEX
  5
BE
  8
SignTorch_WREN_SILHOUETTE_
 10
8.643791908642807
 20
13.64690842458048
 30
0.0
 42
-0.0166337375708503
  0
VERTEX
  5
BF
  8
SignTorch_WREN_SILHOUETTE_
 10
8.573675524088541
 20
13.68043037272135
 30
0.0
 42
0.0005812312674651
  0
VERTEX
  5
C0
  8
SignTorch_WREN_SILHOUETTE_
 10
8.380199808414353
 20
13.780681418852
 30
0.0
 42
0.0324127892888715
  0
VERTEX
  5
C1
  8
SignTorch_WREN_SILHOUETTE_
 10
8.202400804850258
 20
13.85840339518229
 30
0.0
 42
0.0448922727981824
  0
VERTEX
  5
C2
  8
SignTorch_WREN_SILHOUETTE_
 10
8.087676269684923
 20
13.88862500501763
 30
0.0
 42
0.111839663533338
  0
VERTEX
  5
C3
  8
SignTorch_WREN_SILHOUETTE_
 10
8.039628832194008
 20
13.88598444986979
 30
0.0
 42
0.1414859732186295
  0
VERTEX
  5
C4
  8
SignTorch_WREN_SILHOUETTE_
 10
8.014804713427754
 20
13.8704637663489
 30
0.0
 42
0.1465083518556239
  0
VERTEX
  5
C5
  8
SignTorch_WREN_SILHOUETTE_
 10
8.002745462748209
 20
13.84484710550944
 30
0.0
 42
0.1240541450220035
  0
VERTEX
  5
C6
  8
SignTorch_WREN_SILHOUETTE_
 10
8.008180963279338
 20
13.78945371998048
 30
0.0
 42
0.1056787140854085
  0
VERTEX
  5
C7
  8
SignTorch_WREN_SILHOUETTE_
 10
8.06443724283854
 20
13.69876631022135
 30
0.0
 42
0.068338145209607
  0
VERTEX
  5
C8
  8
SignTorch_WREN_SILHOUETTE_
 10
8.12837283225941
 20
13.64826680237615
 30
0.0
 42
-0.0192204229732631
  0
VERTEX
  5
C9
  8
SignTorch_WREN_SILHOUETTE_
 10
8.255657945963542
 20
13.56659248209635
 30
0.0
 42
-0.0035915452307322
  0
VERTEX
  5
CA
  8
SignTorch_WREN_SILHOUETTE_
 10
8.315942367389948
 20
13.52390773925736
 30
0.0
 42
0.008469995732941
  0
VERTEX
  5
CB
  8
SignTorch_WREN_SILHOUETTE_
 10
8.37664036783854
 20
13.48181318522135
 30
0.0
 42
0.0033359723009643
  0
VERTEX
  5
CC
  8
SignTorch_WREN_SILHOUETTE_
 10
8.519502203550282
 20
13.38765329053415
 30
0.0
 42
-0.0156626974035443
  0
VERTEX
  5
CD
  8
SignTorch_WREN_SILHOUETTE_
 10
8.65999974283854
 20
13.29000068522135
 30
0.0
 42
-0.0028204465830471
  0
VERTEX
  5
CE
  8
SignTorch_WREN_SILHOUETTE_
 10
8.79752271689856
 20
13.18667403725383
 30
0.0
 42
0.0123994672552477
  0
VERTEX
  5
CF
  8
SignTorch_WREN_SILHOUETTE_
 10
8.93699974283854
 20
13.08600068522135
 30
0.0
 42
0.0069067227183002
  0
VERTEX
  5
D0
  8
SignTorch_WREN_SILHOUETTE_
 10
9.145082425853404
 20
12.94770273974504
 30
0.0
 42
-0.0162696324890176
  0
VERTEX
  5
D1
  8
SignTorch_WREN_SILHOUETTE_
 10
9.19644847330729
 20
12.91215913248698
 30
0.0
 42
-0.0565091164888529
  0
VERTEX
  5
D2
  8
SignTorch_WREN_SILHOUETTE_
 10
9.259937167581105
 20
12.85292442320902
 30
0.0
 42
-0.0722530698486231
  0
VERTEX
  5
D3
  8
SignTorch_WREN_SILHOUETTE_
 10
9.29624974283854
 20
12.79537568522135
 30
0.0
 42
-0.0111049111925183
  0
VERTEX
  5
D4
  8
SignTorch_WREN_SILHOUETTE_
 10
9.316847242159247
 20
12.74616891897707
 30
0.0
 42
0.0479023679850706
  0
VERTEX
  5
D5
  8
SignTorch_WREN_SILHOUETTE_
 10
9.34100364908854
 20
12.69860810709635
 30
0.0
 42
0.0509007954715535
  0
VERTEX
  5
D6
  8
SignTorch_WREN_SILHOUETTE_
 10
9.376568710086273
 20
12.65347632094589
 30
0.0
 42
0.0808151712744261
  0
VERTEX
  5
D7
  8
SignTorch_WREN_SILHOUETTE_
 10
9.40570286783854
 20
12.63176631022135
 30
0.0
 42
0.0004308242361929
  0
VERTEX
  5
D8
  8
SignTorch_WREN_SILHOUETTE_
 10
9.43386773389168
 20
12.61716547710305
 30
0.0
 42
-0.0888529917682468
  0
VERTEX
  5
D9
  8
SignTorch_WREN_SILHOUETTE_
 10
9.45522044596354
 20
12.60077607584635
 30
0.0
 42
-0.092481733077456
  0
VERTEX
  5
DA
  8
SignTorch_WREN_SILHOUETTE_
 10
9.480403064538383
 20
12.5601116276036
 30
0.0
 42
-0.0205099345536548
  0
VERTEX
  5
DB
  8
SignTorch_WREN_SILHOUETTE_
 10
9.503999742838541
 20
12.49100068522135
 30
0.0
 42
0.0055844513863815
  0
VERTEX
  5
DC
  8
SignTorch_WREN_SILHOUETTE_
 10
9.52743999718172
 20
12.4150029903594
 30
0.0
 42
0.0973533312613855
  0
VERTEX
  5
DD
  8
SignTorch_WREN_SILHOUETTE_
 10
9.56449974283854
 20
12.34787568522135
 30
0.0
 42
0.0392203611395701
  0
VERTEX
  5
DE
  8
SignTorch_WREN_SILHOUETTE_
 10
9.601536677994305
 20
12.31020651999053
 30
0.0
 42
-0.0196259190564652
  0
VERTEX
  5
DF
  8
SignTorch_WREN_SILHOUETTE_
 10
9.672999742838542
 20
12.24300068522135
 30
0.0
 42
-0.0549224405783177
  0
VERTEX
  5
E0
  8
SignTorch_WREN_SILHOUETTE_
 10
9.706375652686498
 20
12.20062166353243
 30
0.0
 42
-0.0451793709327005
  0
VERTEX
  5
E1
  8
SignTorch_WREN_SILHOUETTE_
 10
9.735874742838542
 20
12.14212568522135
 30
0.0
 42
-0.012667972890926
  0
VERTEX
  5
E2
  8
SignTorch_WREN_SILHOUETTE_
 10
9.762820035952576
 20
12.06863831362185
 30
0.0
 42
0.0367274239992456
  0
VERTEX
  5
E3
  8
SignTorch_WREN_SILHOUETTE_
 10
9.819357164713539
 20
11.9347404313151
 30
0.0
 42
0.0519639909992496
  0
VERTEX
  5
E4
  8
SignTorch_WREN_SILHOUETTE_
 10
9.89912254605985
 20
11.8121351297665
 30
0.0
 42
0.0557170096898409
  0
VERTEX
  5
E5
  8
SignTorch_WREN_SILHOUETTE_
 10
9.996251695963542
 20
11.7162687516276
 30
0.0
 42
0.0326115229611846
  0
VERTEX
  5
E6
  8
SignTorch_WREN_SILHOUETTE_
 10
10.08143722381484
 20
11.65769754913171
 30
0.0
 42
-0.121349462381703
  0
VERTEX
  5
E7
  8
SignTorch_WREN_SILHOUETTE_
 10
10.09989232096354
 20
11.63948969889323
 30
0.0
 42
-0.3351999649051455
  0
VERTEX
  5
E8
  8
SignTorch_WREN_SILHOUETTE_
 10
10.09701271153236
 20
11.6096595570451
 30
0.0
 42
0.0237662105954976
  0
VERTEX
  5
E9
  8
SignTorch_WREN_SILHOUETTE_
 10
10.07062474283854
 20
11.57804756022135
 30
0.0
 42
0.1172076671795965
  0
VERTEX
  5
EA
  8
SignTorch_WREN_SILHOUETTE_
 10
10.04974679880863
 20
11.53062213799743
 30
0.0
 42
0.1592973480408977
  0
VERTEX
  5
EB
  8
SignTorch_WREN_SILHOUETTE_
 10
10.05492161783854
 20
11.49240693522135
 30
0.0
 42
0.0283067653442648
  0
VERTEX
  5
EC
  8
SignTorch_WREN_SILHOUETTE_
 10
10.06933539223339
 20
11.46646421647424
 30
0.0
 42
-0.1338726825496029
  0
VERTEX
  5
ED
  8
SignTorch_WREN_SILHOUETTE_
 10
10.07803685221354
 20
11.43809052897135
 30
0.0
 42
-0.1166831766833484
  0
VERTEX
  5
EE
  8
SignTorch_WREN_SILHOUETTE_
 10
10.0722281939664
 20
11.40956893675774
 30
0.0
 42
-0.0586191317488941
  0
VERTEX
  5
EF
  8
SignTorch_WREN_SILHOUETTE_
 10
10.04223240885417
 20
11.3606808610026
 30
0.0
 42
-0.0235293039873422
  0
VERTEX
  5
F0
  8
SignTorch_WREN_SILHOUETTE_
 10
10.00335806869792
 20
11.31586156434745
 30
0.0
 42
0.0616112535923345
  0
VERTEX
  5
F1
  8
SignTorch_WREN_SILHOUETTE_
 10
9.96799974283854
 20
11.26821943522135
 30
0.0
 42
0.0563465379449574
  0
VERTEX
  5
F2
  8
SignTorch_WREN_SILHOUETTE_
 10
9.961641347495247
 20
11.25329815848523
 30
0.0
 42
0.0560462075427055
  0
VERTEX
  5
F3
  8
SignTorch_WREN_SILHOUETTE_
 10
9.95874974283854
 20
11.23725068522135
 30
0.0
 42
-0.0241270755341595
  0
VERTEX
  5
F4
  8
SignTorch_WREN_SILHOUETTE_
 10
9.95682386730265
 20
11.2205113298631
 30
0.0
 42
-0.0809376469357253
  0
VERTEX
  5
F5
  8
SignTorch_WREN_SILHOUETTE_
 10
9.94925267252604
 20
11.1979904313151
 30
0.0
 42
-0.057163317514876
  0
VERTEX
  5
F6
  8
SignTorch_WREN_SILHOUETTE_
 10
9.918115418443437
 20
11.1524812046642
 30
0.0
 42
0.064233552446366
  0
VERTEX
  5
F7
  8
SignTorch_WREN_SILHOUETTE_
 10
9.861486070963542
 20
11.06715864420573
 30
0.0
 42
0.0758247602137103
  0
VERTEX
  5
F8
  8
SignTorch_WREN_SILHOUETTE_
 10
9.841904048105961
 20
11.00524002994279
 30
0.0
 42
0.1942499286415675
  0
VERTEX
  5
F9
  8
SignTorch_WREN_SILHOUETTE_
 10
9.85499974283854
 20
10.94900068522135
 30
0.0
 42
0.1584464736278026
  0
VERTEX
  5
FA
  8
SignTorch_WREN_SILHOUETTE_
 10
9.880992024274176
 20
10.9294855859087
 30
0.0
 42
0.0241962475160669
  0
VERTEX
  5
FB
  8
SignTorch_WREN_SILHOUETTE_
 10
9.908349352213541
 20
10.92157881022135
 30
0.0
 42
-0.0230266542481046
  0
VERTEX
  5
FC
  8
SignTorch_WREN_SILHOUETTE_
 10
9.934716218418183
 20
10.91402504314801
 30
0.0
 42
-0.1841932392784037
  0
VERTEX
  5
FD
  8
SignTorch_WREN_SILHOUETTE_
 10
9.957796617838541
 20
10.89500068522135
 30
0.0
 42
-0.133681396941768
  0
VERTEX
  5
FE
  8
SignTorch_WREN_SILHOUETTE_
 10
9.96586777206508
 20
10.86356775191247
 30
0.0
 42
-0.0301122692937755
  0
VERTEX
  5
FF
  8
SignTorch_WREN_SILHOUETTE_
 10
9.96221068033854
 20
10.81466865397135
 30
0.0
 42
0.0395844028496238
  0
VERTEX
  5
100
  8
SignTorch_WREN_SILHOUETTE_
 10
9.958237126895353
 20
10.74344036902051
 30
0.0
 42
0.1628242968575923
  0
VERTEX
  5
101
  8
SignTorch_WREN_SILHOUETTE_
 10
9.974893297526041
 20
10.6972687516276
 30
0.0
 42
0.2085886363580533
  0
VERTEX
  5
102
  8
SignTorch_WREN_SILHOUETTE_
 10
10.00946483276619
 20
10.67880712786692
 30
0.0
 42
0.1123983267243946
  0
VERTEX
  5
103
  8
SignTorch_WREN_SILHOUETTE_
 10
10.07930833658854
 20
10.68898115397135
 30
0.0
 42
0.0337610163758055
  0
VERTEX
  5
104
  8
SignTorch_WREN_SILHOUETTE_
 10
10.14159619694028
 20
10.71800164292674
 30
0.0
 42
-0.049433234567957
  0
VERTEX
  5
105
  8
SignTorch_WREN_SILHOUETTE_
 10
10.20476146158854
 20
10.74505927897135
 30
0.0
 42
-0.0660681862287171
  0
VERTEX
  5
106
  8
SignTorch_WREN_SILHOUETTE_
 10
10.24977818163164
 20
10.75297149551379
 30
0.0
 42
-0.0872031919651468
  0
VERTEX
  5
107
  8
SignTorch_WREN_SILHOUETTE_
 10
10.28421702799479
 20
10.7484015641276
 30
0.0
 42
-0.041098920697932
  0
VERTEX
  5
108
  8
SignTorch_WREN_SILHOUETTE_
 10
10.31823141463241
 20
10.7344974880631
 30
0.0
 42
0.0980825721146222
  0
VERTEX
  5
109
  8
SignTorch_WREN_SILHOUETTE_
 10
10.38387474283854
 20
10.71600068522135
 30
0.0
 42
0.0681038722281347
  0
VERTEX
  5
10A
  8
SignTorch_WREN_SILHOUETTE_
 10
10.44037965438372
 20
10.71921823300767
 30
0.0
 42
0.0306980396248992
  0
VERTEX
  5
10B
  8
SignTorch_WREN_SILHOUETTE_
 10
10.62328099283854
 20
10.76675068522135
 30
0.0
 42
0.0157368277991086
  0
VERTEX
  5
10C
  8
SignTorch_WREN_SILHOUETTE_
 10
10.8246798685258
 20
10.83960669369543
 30
0.0
 42
-0.0196652358648567
  0
VERTEX
  5
10D
  8
SignTorch_WREN_SILHOUETTE_
 10
11.02664476236979
 20
10.91087861490885
 30
0.0
 42
0.0064761022390218
  0
VERTEX
  5
10E
  8
SignTorch_WREN_SILHOUETTE_
 10
11.06143065777182
 20
10.92213190804338
 30
0.0
 42
0.0471069966981765
  0
VERTEX
  5
10F
  8
SignTorch_WREN_SILHOUETTE_
 10
11.07943724283854
 20
10.93017256022135
 30
0.0
 42
-0.0914824223035751
  0
VERTEX
  5
110
  8
SignTorch_WREN_SILHOUETTE_
 10
11.1015662709342
 20
10.93779336744378
 30
0.0
 42
-0.128831156737858
  0
VERTEX
  5
111
  8
SignTorch_WREN_SILHOUETTE_
 10
11.13206224283854
 20
10.93451631022135
 30
0.0
 42
-0.078182772384722
  0
VERTEX
  5
112
  8
SignTorch_WREN_SILHOUETTE_
 10
11.17125762823549
 20
10.91210850881017
 30
0.0
 42
-0.0608015282131066
  0
VERTEX
  5
113
  8
SignTorch_WREN_SILHOUETTE_
 10
11.23695286783854
 20
10.84489131022135
 30
0.0
 42
-0.0035221571487659
  0
VERTEX
  5
114
  8
SignTorch_WREN_SILHOUETTE_
 10
11.2805098629954
 20
10.78705050537527
 30
0.0
 42
0.0649850932802519
  0
VERTEX
  5
115
  8
SignTorch_WREN_SILHOUETTE_
 10
11.31857567057292
 20
10.74765180826823
 30
0.0
 42
0.0665071088996073
  0
VERTEX
  5
116
  8
SignTorch_WREN_SILHOUETTE_
 10
11.36833729944849
 20
10.71782344320845
 30
0.0
 42
0.0245574993184937
  0
VERTEX
  5
117
  8
SignTorch_WREN_SILHOUETTE_
 10
11.43199974283854
 20
10.69400068522135
 30
0.0
 42
-0.0511874603279469
  0
VERTEX
  5
118
  8
SignTorch_WREN_SILHOUETTE_
 10
11.4511120125982
 20
10.68566540076267
 30
0.0
 42
-0.2128263690524076
  0
VERTEX
  5
119
  8
SignTorch_WREN_SILHOUETTE_
 10
11.46727903971354
 20
10.66385420084635
 30
0.0
 42
-0.0564126533657666
  0
VERTEX
  5
11A
  8
SignTorch_WREN_SILHOUETTE_
 10
11.46986374965188
 20
10.63950620405695
 30
0.0
 42
0.1128459342480685
  0
VERTEX
  5
11B
  8
SignTorch_WREN_SILHOUETTE_
 10
11.49099974283854
 20
10.54400068522135
 30
0.0
 42
0.1334672078757861
  0
VERTEX
  5
11C
  8
SignTorch_WREN_SILHOUETTE_
 10
11.54396341218213
 20
10.48211926524645
 30
0.0
 42
0.0617581526023015
  0
VERTEX
  5
11D
  8
SignTorch_WREN_SILHOUETTE_
 10
11.61774974283854
 20
10.44425068522135
 30
0.0
 42
0.0196991654443648
  0
VERTEX
  5
11E
  8
SignTorch_WREN_SILHOUETTE_
 10
11.69857557843633
 20
10.41823384935552
 30
0.0
 42
-0.0272463351080445
  0
VERTEX
  5
11F
  8
SignTorch_WREN_SILHOUETTE_
 10
11.77899974283854
 20
10.39100068522135
 30
0.0
 42
0.0307035558269777
  0
VERTEX
  5
120
  8
SignTorch_WREN_SILHOUETTE_
 10
11.83813892711203
 20
10.37142938673491
 30
0.0
 42
-0.1542096072271203
  0
VERTEX
  5
121
  8
SignTorch_WREN_SILHOUETTE_
 10
11.85137767252604
 20
10.36305146647135
 30
0.0
 42
-0.3774940313625214
  0
VERTEX
  5
122
  8
SignTorch_WREN_SILHOUETTE_
 10
11.85105711993239
 20
10.3480295371327
 30
0.0
 42
-0.0409269907864232
  0
VERTEX
  5
123
  8
SignTorch_WREN_SILHOUETTE_
 10
11.83002025065104
 20
10.32859834147135
 30
0.0
 42
-0.0223828930183193
  0
VERTEX
  5
124
  8
SignTorch_WREN_SILHOUETTE_
 10
11.7648359418179
 20
10.2821438356573
 30
0.0
 42
0.0938339716233545
  0
VERTEX
  5
125
  8
SignTorch_WREN_SILHOUETTE_
 10
11.70690208658854
 20
10.22691084147135
 30
0.0
 42
0.1302586784685877
  0
VERTEX
  5
126
  8
SignTorch_WREN_SILHOUETTE_
 10
11.68382250321427
 20
10.16616302487448
 30
0.0
 42
0.1332869332790471
  0
VERTEX
  5
127
  8
SignTorch_WREN_SILHOUETTE_
 10
11.68989427408854
 20
10.12877412272135
 30
0.0
 42
0.3799634480509298
  0
VERTEX
  5
128
  8
SignTorch_WREN_SILHOUETTE_
 10
11.72861635674706
 20
10.11154852274973
 30
0.0
 42
0.1091510387179041
  0
VERTEX
  5
129
  8
SignTorch_WREN_SILHOUETTE_
 10
11.77599974283854
 20
10.13900068522135
 30
0.0
 42
0.0224007461140817
  0
VERTEX
  5
12A
  8
SignTorch_WREN_SILHOUETTE_
 10
11.82520068825737
 20
10.18839328025937
 30
0.0
 42
-0.0954783468034548
  0
VERTEX
  5
12B
  8
SignTorch_WREN_SILHOUETTE_
 10
11.88104661783854
 20
10.23012568522135
 30
0.0
 42
-0.0711782188253787
  0
VERTEX
  5
12C
  8
SignTorch_WREN_SILHOUETTE_
 10
11.96153639333361
 20
10.25584312167925
 30
0.0
 42
-0.060481003544263
  0
VERTEX
  5
12D
  8
SignTorch_WREN_SILHOUETTE_
 10
12.06073411783854
 20
10.26044209147135
 30
0.0
 42
-0.0142472101781508
  0
VERTEX
  5
12E
  8
SignTorch_WREN_SILHOUETTE_
 10
12.1369215696505
 20
10.25256854282947
 30
0.0
 42
0.1156501480973141
  0
VERTEX
  5
12F
  8
SignTorch_WREN_SILHOUETTE_
 10
12.17804661783854
 20
10.25664521647135
 30
0.0
 42
0.1048846864520026
  0
VERTEX
  5
130
  8
SignTorch_WREN_SILHOUETTE_
 10
12.19979638643394
 20
10.26962622101888
 30
0.0
 42
-0.2388411228247074
  0
VERTEX
  5
131
  8
SignTorch_WREN_SILHOUETTE_
 10
12.24487474283854
 20
10.28250068522135
 30
0.0
 42
-0.0284779009806432
  0
VERTEX
  5
132
  8
SignTorch_WREN_SILHOUETTE_
 10
12.25801079967698
 20
10.27917946647496
 30
0.0
 42
-0.0055694689473153
  0
VERTEX
  5
133
  8
SignTorch_WREN_SILHOUETTE_
 10
12.32381614908854
 20
10.25768427897135
 30
0.0
 42
-0.0530473345721257
  0
VERTEX
  5
134
  8
SignTorch_WREN_SILHOUETTE_
 10
12.44645419013774
 20
10.20101542819102
 30
0.0
 42
-0.0718910167241418
  0
VERTEX
  5
135
  8
SignTorch_WREN_SILHOUETTE_
 10
12.52399974283854
 20
10.13800068522135
 30
0.0
 42
0.0863789370503521
  0
VERTEX
  5
136
  8
SignTorch_WREN_SILHOUETTE_
 10
12.55562930733162
 20
10.1137760232969
 30
0.0
 42
0.3484158778188922
  0
VERTEX
  5
137
  8
SignTorch_WREN_SILHOUETTE_
 10
12.5836299613444
 20
10.11913975382487
 30
0.0
 42
0.1823629356304639
  0
VERTEX
  5
138
  8
SignTorch_WREN_SILHOUETTE_
 10
12.59174843093455
 20
10.14136353322748
 30
0.0
 42
0.119808995852099
  0
VERTEX
  5
139
  8
SignTorch_WREN_SILHOUETTE_
 10
12.57810008463542
 20
10.19503901529948
 30
0.0
 42
0.0840128990140548
  0
VERTEX
  5
13A
  8
SignTorch_WREN_SILHOUETTE_
 10
12.54403956735236
 20
10.23937122380028
 30
0.0
 42
0.0580490189251131
  0
VERTEX
  5
13B
  8
SignTorch_WREN_SILHOUETTE_
 10
12.47899974283854
 20
10.28700068522135
 30
0.0
 42
-0.0172165383103113
  0
VERTEX
  5
13C
  8
SignTorch_WREN_SILHOUETTE_
 10
12.44766736411034
 20
10.3062342890777
 30
0.0
 42
-0.1008309763819462
  0
VERTEX
  5
13D
  8
SignTorch_WREN_SILHOUETTE_
 10
12.44318724283854
 20
10.31071943522135
 30
0.0
 42
-0.5142295741751431
  0
VERTEX
  5
13E
  8
SignTorch_WREN_SILHOUETTE_
 10
12.44630398562873
 20
10.31884955323552
 30
0.0
 42
-0.0672864026795209
  0
VERTEX
  5
13F
  8
SignTorch_WREN_SILHOUETTE_
 10
12.46127318033854
 20
10.32066084147135
 30
0.0
 42
-0.0178395848184758
  0
VERTEX
  5
140
  8
SignTorch_WREN_SILHOUETTE_
 10
12.47657863801108
 20
10.31990060725552
 30
0.0
 42
-0.0106286823104351
  0
SEQEND
  5
141
  8
SignTorch_WREN_SILHOUETTE_
  0
ENDSEC
  0
EOF
